<?xml version="1.0" encoding="UTF-8" standalone="no"?>
<!-- Created with Inkscape (http://www.inkscape.org/) -->

<svg
   width="121.58164mm"
   height="119.83284mm"
   viewBox="0 0 121.58164 119.83284"
   version="1.1"
   id="svg1"
   xml:space="preserve"
   xmlns:xlink="http://www.w3.org/1999/xlink"
   xmlns="http://www.w3.org/2000/svg"
   xmlns:svg="http://www.w3.org/2000/svg"><defs
     id="defs1"><clipPath
       id="f"><use
         xlink:href="#b"
         id="use2" /></clipPath><clipPath
       id="g"><use
         xlink:href="#c"
         id="use3" /></clipPath><clipPath
       id="h"><use
         xlink:href="#d"
         id="use4" /></clipPath><path
       d="M 0,0 H 512 V 512 H 0 Z"
       id="b" /><path
       d="m 77.005,0 h 189.131 a 25.603,25.603 0 0 1 21.284,11.377 25.011,25.011 0 0 1 1.292,2.154 c 0.197,0.37 0.385,0.744 0.565,1.123 a 26.483,26.483 0 0 1 0.96,2.32 25.074,25.074 0 0 1 0.729,2.404 24.572,24.572 0 0 1 0.492,2.464 26.088,26.088 0 0 1 0.276,3.756 v 183.566 c 0,0.383 -0.009,0.767 -0.029,1.15 a 23.17,23.17 0 0 1 -1.341,6.75 23.583,23.583 0 0 1 -3.953,6.977 c -0.243,0.297 -0.494,0.588 -0.753,0.872 a 22.296,22.296 0 0 1 -1.626,1.628 23.127,23.127 0 0 1 -1.78,1.459 c -0.308,0.229 -0.622,0.45 -0.94,0.664 a 24.093,24.093 0 0 1 -1.975,1.183 23.539,23.539 0 0 1 -3.154,1.398 23.332,23.332 0 0 1 -6.752,1.343 25.92,25.92 0 0 1 -1.15,0.029 h -0.003 c -0.384,0 -0.767,0.009 -1.151,0.027 a 24.513,24.513 0 0 0 -2.29,0.226 c -0.38,0.056 -0.758,0.122 -1.135,0.198 a 22.729,22.729 0 0 0 -3.324,0.919 c -0.362,0.129 -0.721,0.267 -1.076,0.415 a 24.517,24.517 0 0 0 -2.08,0.983 23.63,23.63 0 0 0 -6.322,4.934 23.918,23.918 0 0 0 -2.739,3.693 23.03,23.03 0 0 0 -1.083,2.03 22.474,22.474 0 0 0 -0.881,2.126 23.255,23.255 0 0 0 -1.343,6.75 c -0.02,0.383 -0.029,0.767 -0.029,1.15 v 0.004 a 23.307,23.307 0 0 1 -0.703,5.698 22.576,22.576 0 0 1 -0.668,2.204 24.739,24.739 0 0 1 -0.88,2.126 22.412,22.412 0 0 1 -1.086,2.029 23.054,23.054 0 0 1 -1.278,1.913 23.995,23.995 0 0 1 -1.459,1.781 c -0.259,0.284 -0.524,0.562 -0.796,0.832 -0.27,0.272 -0.548,0.537 -0.832,0.794 a 24.031,24.031 0 0 1 -1.78,1.461 c -0.308,0.229 -0.621,0.449 -0.941,0.662 -0.318,0.214 -0.643,0.419 -0.973,0.616 a 22.412,22.412 0 0 1 -2.029,1.086 24.739,24.739 0 0 1 -2.126,0.88 23.658,23.658 0 0 1 -6.75,1.343 c -0.384,0.019 -0.768,0.028 -1.152,0.028 H 25.598 a 26.311,26.311 0 0 1 -2.509,-0.123 24.87,24.87 0 0 1 -2.485,-0.369 25.725,25.725 0 0 1 -3.63,-1.005 25.761,25.761 0 0 1 -4.536,-2.145 c -0.36,-0.215 -0.713,-0.439 -1.061,-0.673 -0.349,-0.232 -0.691,-0.473 -1.028,-0.723 A 26.16,26.16 0 0 1 7.497,272.027 24.89,24.89 0 0 1 5.811,270.165 25.282,25.282 0 0 1 3.023,265.994 25.212,25.212 0 0 1 1.949,263.723 25.351,25.351 0 0 1 1.102,261.357 25.392,25.392 0 0 1 0.123,256.435 25.507,25.507 0 0 1 0,253.926 V 77.648 a 25.58,25.58 0 0 1 3.642,-13.16 25.668,25.668 0 0 1 3.856,-4.941 25.55,25.55 0 0 1 6.033,-4.475 25.584,25.584 0 0 1 12.067,-3.023 h 0.21 a 25.67,25.67 0 0 0 6.22,-0.767 25.437,25.437 0 0 0 4.725,-1.69 25.695,25.695 0 0 0 5.295,-3.353 25.682,25.682 0 0 0 4.321,-4.539 25.289,25.289 0 0 0 2.015,-3.182 25.472,25.472 0 0 0 1.92,-4.636 25.692,25.692 0 0 0 1.072,-6.175 c 0.02,-0.418 0.03,-0.837 0.03,-1.256 v -0.853 a 25.545,25.545 0 0 1 1.497,-8.623 25.3,25.3 0 0 1 1.526,-3.444 25.558,25.558 0 0 1 6.337,-7.72 A 25.637,25.637 0 0 1 69.574,1.102 25.633,25.633 0 0 1 77.005,0 Z"
       id="c" /><path
       d="m 196.876,8.767 0.554,0.499 a 33.95,33.95 0 0 1 4.509,4.943 33.256,33.256 0 0 1 1.87,2.779 33.924,33.924 0 0 1 2.881,6.039 34.131,34.131 0 0 1 1.997,13.167 34.378,34.378 0 0 1 -0.598,4.986 33.86,33.86 0 0 1 -1.324,4.844 33.682,33.682 0 0 1 -1.271,3.099 34.826,34.826 0 0 1 -1.57,2.959 34.329,34.329 0 0 1 -1.852,2.791 33.788,33.788 0 0 1 -2.116,2.596 L 51.284,222.587 0,176.411 148.672,11.293 a 34.11,34.11 0 0 1 3.626,-3.475 34.85,34.85 0 0 1 2.684,-2.004 33.876,33.876 0 0 1 4.361,-2.49 33.7,33.7 0 0 1 3.091,-1.291 33.725,33.725 0 0 1 3.202,-0.983 33.865,33.865 0 0 1 4.945,-0.875 34.034,34.034 0 0 1 8.354,0.178 34.017,34.017 0 0 1 6.496,1.605 34.552,34.552 0 0 1 3.098,1.271 33.75,33.75 0 0 1 2.959,1.57 33.894,33.894 0 0 1 5.388,3.968 z"
       id="d" /><style
       id="style1">.cls-1{fill:#cc2927;}.cls-2{fill:#242754;}.cls-3{fill:#0596be;}</style></defs><g
     id="layer1"
     transform="translate(-37.041669,-80.697918)"><path
       d="m 150.538,60.757 h 285.557 a 25.58,25.58 0 0 1 12.068,3.023 26.281,26.281 0 0 1 2.154,1.291 25.282,25.282 0 0 1 2.017,1.496 25.19,25.19 0 0 1 2.73,2.598 26.161,26.161 0 0 1 1.592,1.942 c 0.25,0.336 0.491,0.679 0.723,1.027 0.234,0.348 0.458,0.702 0.673,1.061 a 26.68,26.68 0 0 1 1.184,2.216 26.55,26.55 0 0 1 0.961,2.32 26.248,26.248 0 0 1 0.73,2.405 25.725,25.725 0 0 1 0.767,6.22 v 274.752 a 26.288,26.288 0 0 1 -0.123,2.51 24.855,24.855 0 0 1 -0.369,2.484 25.852,25.852 0 0 1 -0.61,2.437 25.607,25.607 0 0 1 -9.247,13.131 26.001,26.001 0 0 1 -4.305,2.58 c -0.379,0.18 -0.76,0.348 -1.148,0.507 a 24.473,24.473 0 0 1 -2.366,0.847 25.184,25.184 0 0 1 -3.674,0.826 25.918,25.918 0 0 1 -2.5,0.246 c -0.419,0.02 -0.838,0.03 -1.257,0.03 h -14.534 a 26.353,26.353 0 0 0 -2.508,0.123 c -0.417,0.042 -0.832,0.094 -1.246,0.156 a 25.42,25.42 0 0 0 -2.465,0.49 25.539,25.539 0 0 0 -8.002,3.546 26.05,26.05 0 0 0 -2.017,1.497 c -0.325,0.265 -0.642,0.538 -0.95,0.821 a 24.81,24.81 0 0 0 -2.599,2.727 25.305,25.305 0 0 0 -2.169,3.08 26.06,26.06 0 0 0 -1.693,3.362 26.491,26.491 0 0 0 -0.846,2.366 c -0.122,0.402 -0.234,0.805 -0.335,1.212 a 25.993,25.993 0 0 0 -0.643,3.71 25.038,25.038 0 0 0 -0.125,2.509 v 14.534 a 25.097,25.097 0 0 1 -0.123,2.51 26.03,26.03 0 0 1 -0.368,2.483 c -0.082,0.411 -0.174,0.82 -0.275,1.226 a 25.596,25.596 0 0 1 -24.832,19.379 H 78.505 a 25.06,25.06 0 0 1 -2.51,-0.123 26.088,26.088 0 0 1 -2.484,-0.368 25.711,25.711 0 0 1 -2.437,-0.61 26.261,26.261 0 0 1 -2.365,-0.848 25.38,25.38 0 0 1 -3.364,-1.693 25.011,25.011 0 0 1 -2.09,-1.396 25.168,25.168 0 0 1 -4.539,-4.321 24.586,24.586 0 0 1 -1.495,-2.018 25.56,25.56 0 0 1 -4.284,-12.965 c -0.02,-0.419 -0.03,-0.838 -0.03,-1.256 V 159.29 A 25.6,25.6 0 0 1 78.505,133.692 H 99.34 a 25.54,25.54 0 0 0 7.431,-1.103 25.442,25.442 0 0 0 4.636,-1.92 25.493,25.493 0 0 0 5.124,-3.608 25.745,25.745 0 0 0 3.37,-3.719 25.735,25.735 0 0 0 2.58,-4.304 25.655,25.655 0 0 0 1.966,-5.95 25.644,25.644 0 0 0 0.492,-4.994 V 86.356 a 25.545,25.545 0 0 1 1.102,-7.431 25.526,25.526 0 0 1 2.54,-5.73 25.633,25.633 0 0 1 6.707,-7.4 25.545,25.545 0 0 1 6.625,-3.541 25.658,25.658 0 0 1 7.368,-1.466 c 0.418,-0.02 0.837,-0.03 1.256,-0.03 v 0 z"
       fill="#36c38e"
       fill-rule="evenodd"
       stroke="#36c38e"
       id="path5"
       style="fill:#36a7c3;fill-opacity:1"
       transform="matrix(0.26458333,0,0,0.26458333,23.17565,64.75492)" /><path
       d="m 163.048,81.467 h 251.437 a 25.58,25.58 0 0 1 13.16,3.642 24.946,24.946 0 0 1 2.09,1.395 25.99,25.99 0 0 1 1.943,1.594 25.704,25.704 0 0 1 5.948,8.022 26.55,26.55 0 0 1 0.961,2.321 26.248,26.248 0 0 1 0.73,2.404 25.67,25.67 0 0 1 0.767,6.22 v 241.728 a 26.353,26.353 0 0 1 -0.123,2.508 24.712,24.712 0 0 1 -0.369,2.485 25.852,25.852 0 0 1 -0.61,2.437 26.413,26.413 0 0 1 -0.847,2.366 26.69,26.69 0 0 1 -1.074,2.27 25.087,25.087 0 0 1 -1.292,2.155 25.014,25.014 0 0 1 -1.495,2.017 25.729,25.729 0 0 1 -1.688,1.862 c -0.296,0.296 -0.599,0.585 -0.909,0.867 a 26.575,26.575 0 0 1 -1.943,1.593 c -0.336,0.25 -0.679,0.49 -1.027,0.723 -0.348,0.234 -0.702,0.458 -1.062,0.673 a 24.477,24.477 0 0 1 -2.215,1.184 24.892,24.892 0 0 1 -2.32,0.96 26.413,26.413 0 0 1 -2.403,0.731 27.14,27.14 0 0 1 -2.465,0.49 24.712,24.712 0 0 1 -2.5,0.246 c -0.419,0.02 -0.838,0.03 -1.257,0.03 h -7.873 a 25.038,25.038 0 0 0 -2.51,0.124 27.638,27.638 0 0 0 -2.485,0.368 c -0.41,0.082 -0.819,0.174 -1.225,0.277 a 24.847,24.847 0 0 0 -2.403,0.729 26.136,26.136 0 0 0 -3.444,1.525 26.043,26.043 0 0 0 -3.182,2.016 25.337,25.337 0 0 0 -2.85,2.459 25.627,25.627 0 0 0 -3.186,3.879 25.984,25.984 0 0 0 -2.366,4.426 25.982,25.982 0 0 0 -0.846,2.365 c -0.12,0.402 -0.232,0.806 -0.335,1.212 a 27.057,27.057 0 0 0 -0.489,2.463 25.106,25.106 0 0 0 -0.246,2.5 c -0.02,0.419 -0.03,0.837 -0.03,1.256 v 7.875 a 25.097,25.097 0 0 1 -0.125,2.508 25.992,25.992 0 0 1 -0.644,3.71 25.9,25.9 0 0 1 -0.334,1.213 26.387,26.387 0 0 1 -1.355,3.514 26.731,26.731 0 0 1 -1.857,3.276 28.34,28.34 0 0 1 -0.724,1.028 24.843,24.843 0 0 1 -1.594,1.94 c -0.28,0.31 -0.569,0.615 -0.865,0.912 a 26.613,26.613 0 0 1 -2.852,2.459 c -0.337,0.249 -0.679,0.49 -1.028,0.724 a 25.582,25.582 0 0 1 -5.597,2.817 25.596,25.596 0 0 1 -8.624,1.497 H 98.314 a 25.06,25.06 0 0 1 -2.51,-0.125 26.088,26.088 0 0 1 -2.484,-0.368 24.554,24.554 0 0 1 -2.437,-0.61 25.061,25.061 0 0 1 -2.365,-0.846 25.38,25.38 0 0 1 -3.365,-1.693 c -0.359,-0.216 -0.713,-0.44 -1.061,-0.672 a 24.843,24.843 0 0 1 -2.97,-2.318 c -0.31,-0.281 -0.613,-0.57 -0.91,-0.865 a 25.802,25.802 0 0 1 -1.686,-1.862 26.227,26.227 0 0 1 -2.169,-3.079 25.686,25.686 0 0 1 -3.15,-8.167 25.117,25.117 0 0 1 -0.368,-2.485 25.698,25.698 0 0 1 -0.124,-2.508 V 172.609 a 25.597,25.597 0 0 1 25.599,-25.598 h 13.538 a 25.545,25.545 0 0 0 7.43,-1.103 25.677,25.677 0 0 0 5.73,-2.54 25.6,25.6 0 0 0 10.942,-13.332 25.494,25.494 0 0 0 1.373,-6.115 25.585,25.585 0 0 0 0.123,-2.509 v -14.347 a 25.67,25.67 0 0 1 0.767,-6.22 25.61,25.61 0 0 1 12.764,-16.356 25.617,25.617 0 0 1 12.067,-3.022 z"
       fill="#035841"
       fill-rule="evenodd"
       id="path6"
       style="fill:#034758;fill-opacity:1"
       transform="matrix(0.26458333,0,0,0.26458333,23.17565,64.75492)" /><path
       d="M 187.538,117.166 H 376.67 a 25.603,25.603 0 0 1 21.284,11.377 25.011,25.011 0 0 1 1.292,2.154 c 0.197,0.37 0.385,0.744 0.565,1.123 a 26.483,26.483 0 0 1 0.96,2.32 25.074,25.074 0 0 1 0.73,2.404 24.572,24.572 0 0 1 0.491,2.464 26.088,26.088 0 0 1 0.276,3.756 V 326.33 c 0,0.383 -0.009,0.767 -0.029,1.15 a 23.17,23.17 0 0 1 -1.34,6.75 23.583,23.583 0 0 1 -3.954,6.977 c -0.243,0.297 -0.494,0.588 -0.753,0.872 a 22.296,22.296 0 0 1 -1.626,1.628 23.127,23.127 0 0 1 -1.78,1.459 c -0.308,0.229 -0.622,0.45 -0.94,0.664 a 24.093,24.093 0 0 1 -1.975,1.183 23.539,23.539 0 0 1 -3.154,1.398 23.332,23.332 0 0 1 -6.752,1.343 25.92,25.92 0 0 1 -1.15,0.029 h -0.003 c -0.384,0 -0.767,0.009 -1.15,0.027 a 24.513,24.513 0 0 0 -2.29,0.226 c -0.38,0.056 -0.759,0.122 -1.136,0.198 a 22.729,22.729 0 0 0 -3.324,0.919 c -0.362,0.129 -0.72,0.267 -1.076,0.415 a 24.517,24.517 0 0 0 -2.08,0.983 23.63,23.63 0 0 0 -6.322,4.934 23.918,23.918 0 0 0 -2.739,3.693 23.03,23.03 0 0 0 -1.083,2.03 22.474,22.474 0 0 0 -0.88,2.126 23.255,23.255 0 0 0 -1.344,6.75 c -0.02,0.383 -0.029,0.767 -0.029,1.15 v 0.004 a 23.307,23.307 0 0 1 -0.703,5.698 22.576,22.576 0 0 1 -0.668,2.204 24.739,24.739 0 0 1 -0.88,2.126 22.412,22.412 0 0 1 -1.086,2.029 23.054,23.054 0 0 1 -1.278,1.913 23.995,23.995 0 0 1 -1.459,1.781 c -0.259,0.284 -0.524,0.562 -0.796,0.832 -0.27,0.272 -0.548,0.537 -0.832,0.794 a 24.031,24.031 0 0 1 -1.78,1.461 c -0.308,0.229 -0.62,0.449 -0.94,0.662 -0.319,0.214 -0.644,0.419 -0.974,0.616 a 22.412,22.412 0 0 1 -2.029,1.086 24.739,24.739 0 0 1 -2.126,0.88 23.658,23.658 0 0 1 -6.75,1.343 c -0.384,0.019 -0.768,0.028 -1.152,0.028 H 136.132 a 26.311,26.311 0 0 1 -2.51,-0.123 24.87,24.87 0 0 1 -2.485,-0.369 25.725,25.725 0 0 1 -3.63,-1.005 25.761,25.761 0 0 1 -4.536,-2.145 c -0.359,-0.215 -0.713,-0.439 -1.061,-0.673 a 26.823,26.823 0 0 1 -2.018,-1.495 26.16,26.16 0 0 1 -1.861,-1.688 24.89,24.89 0 0 1 -1.687,-1.862 25.282,25.282 0 0 1 -2.788,-4.171 25.212,25.212 0 0 1 -1.074,-2.271 25.351,25.351 0 0 1 -0.847,-2.366 25.392,25.392 0 0 1 -0.979,-4.922 25.507,25.507 0 0 1 -0.123,-2.509 V 194.814 a 25.58,25.58 0 0 1 3.642,-13.16 25.668,25.668 0 0 1 3.856,-4.941 25.55,25.55 0 0 1 6.034,-4.475 25.584,25.584 0 0 1 12.067,-3.023 h 0.21 a 25.67,25.67 0 0 0 6.22,-0.767 25.437,25.437 0 0 0 4.724,-1.69 25.695,25.695 0 0 0 5.295,-3.353 25.682,25.682 0 0 0 4.322,-4.539 25.289,25.289 0 0 0 2.014,-3.182 25.472,25.472 0 0 0 1.92,-4.636 25.692,25.692 0 0 0 1.072,-6.175 c 0.02,-0.418 0.031,-0.837 0.031,-1.256 v -0.853 a 25.545,25.545 0 0 1 1.497,-8.623 25.3,25.3 0 0 1 1.526,-3.444 25.558,25.558 0 0 1 6.336,-7.72 25.637,25.637 0 0 1 8.809,-4.709 25.633,25.633 0 0 1 7.43,-1.102 z"
       fill="#023e2e"
       fill-rule="evenodd"
       id="path7"
       style="fill:#02323e;fill-opacity:1"
       transform="matrix(0.26458333,0,0,0.26458333,23.17565,64.75492)" /><path
       d="M 187.538,117.166 H 376.67 a 25.603,25.603 0 0 1 21.284,11.377 25.011,25.011 0 0 1 1.292,2.154 c 0.197,0.37 0.385,0.744 0.565,1.123 a 26.483,26.483 0 0 1 0.96,2.32 25.074,25.074 0 0 1 0.73,2.404 24.572,24.572 0 0 1 0.491,2.464 26.088,26.088 0 0 1 0.276,3.756 V 326.33 c 0,0.383 -0.009,0.767 -0.029,1.15 a 23.17,23.17 0 0 1 -1.34,6.75 23.583,23.583 0 0 1 -3.954,6.977 c -0.243,0.297 -0.494,0.588 -0.753,0.872 a 22.296,22.296 0 0 1 -1.626,1.628 23.127,23.127 0 0 1 -1.78,1.459 c -0.308,0.229 -0.622,0.45 -0.94,0.664 a 24.093,24.093 0 0 1 -1.975,1.183 23.539,23.539 0 0 1 -3.154,1.398 23.332,23.332 0 0 1 -6.752,1.343 25.92,25.92 0 0 1 -1.15,0.029 h -0.003 c -0.384,0 -0.767,0.009 -1.15,0.027 a 24.513,24.513 0 0 0 -2.29,0.226 c -0.38,0.056 -0.759,0.122 -1.136,0.198 a 22.729,22.729 0 0 0 -3.324,0.919 c -0.362,0.129 -0.72,0.267 -1.076,0.415 a 24.517,24.517 0 0 0 -2.08,0.983 23.63,23.63 0 0 0 -6.322,4.934 23.918,23.918 0 0 0 -2.739,3.693 23.03,23.03 0 0 0 -1.083,2.03 22.474,22.474 0 0 0 -0.88,2.126 23.255,23.255 0 0 0 -1.344,6.75 c -0.02,0.383 -0.029,0.767 -0.029,1.15 v 0.004 a 23.307,23.307 0 0 1 -0.703,5.698 22.576,22.576 0 0 1 -0.668,2.204 24.739,24.739 0 0 1 -0.88,2.126 22.412,22.412 0 0 1 -1.086,2.029 23.054,23.054 0 0 1 -1.278,1.913 23.995,23.995 0 0 1 -1.459,1.781 c -0.259,0.284 -0.524,0.562 -0.796,0.832 -0.27,0.272 -0.548,0.537 -0.832,0.794 a 24.031,24.031 0 0 1 -1.78,1.461 c -0.308,0.229 -0.62,0.449 -0.94,0.662 -0.319,0.214 -0.644,0.419 -0.974,0.616 a 22.412,22.412 0 0 1 -2.029,1.086 24.739,24.739 0 0 1 -2.126,0.88 23.658,23.658 0 0 1 -6.75,1.343 c -0.384,0.019 -0.768,0.028 -1.152,0.028 H 136.132 a 26.311,26.311 0 0 1 -2.51,-0.123 24.87,24.87 0 0 1 -2.485,-0.369 25.725,25.725 0 0 1 -3.63,-1.005 25.761,25.761 0 0 1 -4.536,-2.145 c -0.359,-0.215 -0.713,-0.439 -1.061,-0.673 a 26.823,26.823 0 0 1 -2.018,-1.495 26.16,26.16 0 0 1 -1.861,-1.688 24.89,24.89 0 0 1 -1.687,-1.862 25.282,25.282 0 0 1 -2.788,-4.171 25.212,25.212 0 0 1 -1.074,-2.271 25.351,25.351 0 0 1 -0.847,-2.366 25.392,25.392 0 0 1 -0.979,-4.922 25.507,25.507 0 0 1 -0.123,-2.509 V 194.814 a 25.58,25.58 0 0 1 3.642,-13.16 25.668,25.668 0 0 1 3.856,-4.941 25.55,25.55 0 0 1 6.034,-4.475 25.584,25.584 0 0 1 12.067,-3.023 h 0.21 a 25.67,25.67 0 0 0 6.22,-0.767 25.437,25.437 0 0 0 4.724,-1.69 25.695,25.695 0 0 0 5.295,-3.353 25.682,25.682 0 0 0 4.322,-4.539 25.289,25.289 0 0 0 2.014,-3.182 25.472,25.472 0 0 0 1.92,-4.636 25.692,25.692 0 0 0 1.072,-6.175 c 0.02,-0.418 0.031,-0.837 0.031,-1.256 v -0.853 a 25.545,25.545 0 0 1 1.497,-8.623 25.3,25.3 0 0 1 1.526,-3.444 25.558,25.558 0 0 1 6.336,-7.72 25.637,25.637 0 0 1 8.809,-4.709 25.633,25.633 0 0 1 7.43,-1.102 z"
       fill="none"
       id="path8"
       transform="matrix(0.26458333,0,0,0.26458333,23.17565,64.75492)" /><g
       clip-path="url(#g)"
       transform="matrix(0.26458333,0,0,0.26458333,52.420839,95.755091)"
       id="g9"><path
         d="m 206.332,124.276 c 3.529,1.329 7.444,1.993 11.746,1.993 6.235,0 11.756,-1.063 16.565,-3.19 4.809,-2.126 9.002,-4.942 12.579,-8.446 3.576,-3.504 6.573,-7.516 8.989,-12.035 a 79.747,79.747 0 0 0 5.873,-14.029 c 1.499,-4.833 2.574,-9.618 3.227,-14.355 0.652,-4.736 0.978,-9.062 0.978,-12.977 0,-5.607 -0.7,-10.476 -2.102,-14.609 -1.402,-4.132 -3.36,-7.564 -5.873,-10.295 -2.513,-2.73 -5.546,-4.76 -9.098,-6.09 -3.552,-1.329 -7.455,-1.994 -11.71,-1.994 -6.235,0 -11.756,1.064 -16.565,3.19 -4.81,2.127 -9.002,4.942 -12.58,8.447 -3.575,3.504 -6.584,7.515 -9.026,12.035 a 78.6,78.6 0 0 0 -5.908,13.992 c -1.498,4.81 -2.574,9.594 -3.226,14.355 -0.653,4.761 -0.98,9.099 -0.98,13.014 0,5.607 0.702,10.476 2.104,14.609 1.4,4.132 3.37,7.564 5.907,10.295 2.539,2.73 5.572,4.76 9.1,6.09 z m -181.25,0.326 3.117,-15.733 h 24.215 l 12.18,-60.9 -23.49,11.6 L 37.407,45.142 70.684,29.264 H 86.417 L 70.539,108.87 h 20.808 l -3.118,15.733 H 25.082 Z m 81.635,0 3.117,-15.733 h 24.215 l 12.18,-60.9 -23.49,11.6 -3.697,-14.427 33.278,-15.878 h 15.732 l -15.878,79.605 h 20.808 l -3.118,15.733 z m 117.92,-78.518 c 3.022,-2.271 6.418,-3.407 10.189,-3.407 3.769,0 6.765,1.1 8.989,3.299 2.223,2.199 3.625,5.546 4.205,10.041 l -39.875,25.23 A 82.794,82.794 0 0 1 211.262,67.4 c 1.45,-4.592 3.287,-8.725 5.51,-12.398 2.224,-3.673 4.846,-6.646 7.866,-8.918 z m 3.155,64.199 c -2.175,1.04 -4.52,1.559 -7.033,1.559 -3.77,0 -6.766,-1.088 -8.99,-3.263 -2.222,-2.175 -3.648,-5.534 -4.278,-10.077 l 39.948,-25.303 a 98.023,98.023 0 0 1 -1.921,9.39 73.254,73.254 0 0 1 -2.9,8.953 55.394,55.394 0 0 1 -3.915,7.975 c -1.473,2.465 -3.116,4.616 -4.93,6.452 -1.811,1.837 -3.805,3.275 -5.981,4.314 z m -91.35,137.16 c -4.302,0 -8.217,-0.665 -11.745,-1.994 -3.529,-1.329 -6.562,-3.359 -9.099,-6.09 -2.538,-2.731 -4.507,-6.163 -5.909,-10.295 -1.402,-4.133 -2.102,-9.003 -2.102,-14.61 0,-3.913 0.326,-8.251 0.978,-13.013 0.653,-4.76 1.728,-9.545 3.227,-14.355 a 78.57,78.57 0 0 1 5.908,-13.992 c 2.441,-4.52 5.45,-8.53 9.027,-12.035 3.577,-3.504 7.769,-6.32 12.579,-8.446 4.809,-2.127 10.33,-3.19 16.566,-3.19 4.253,0 8.156,0.664 11.709,1.994 3.552,1.329 6.585,3.359 9.098,6.09 2.514,2.73 4.47,6.162 5.873,10.294 1.402,4.133 2.102,9.003 2.102,14.61 0,3.914 -0.326,8.24 -0.978,12.977 -0.653,4.736 -1.728,9.521 -3.227,14.354 a 79.741,79.741 0 0 1 -5.872,14.03 c -2.417,4.518 -5.413,8.53 -8.99,12.035 -3.577,3.504 -7.77,6.32 -12.58,8.446 -4.808,2.126 -10.33,3.19 -16.565,3.19 z m -111.36,-1.668 3.117,-15.732 h 24.215 l 12.18,-60.9 -23.49,11.6 -3.697,-14.428 33.277,-15.877 h 15.733 l -15.878,79.605 h 20.808 l -3.118,15.732 z m 166.388,-15.732 -3.118,15.732 H 251.5 l 3.118,-15.732 H 233.81 l 15.877,-79.605 h -15.732 l -33.278,15.877 3.698,14.428 23.489,-11.6 -12.18,60.9 z M 153.189,163.85 c -3.77,0 -7.165,1.136 -10.186,3.408 -3.021,2.271 -5.643,5.244 -7.866,8.917 -2.223,3.674 -4.06,7.806 -5.51,12.398 a 82.918,82.918 0 0 0 -3.118,13.848 l 39.876,-25.23 c -0.58,-4.496 -1.982,-7.843 -4.205,-10.042 -2.224,-2.2 -5.22,-3.299 -8.991,-3.299 z m -14.064,69.164 c 2.513,0 4.857,-0.52 7.032,-1.558 2.175,-1.039 4.169,-2.476 5.98,-4.313 1.814,-1.837 3.457,-3.988 4.93,-6.452 a 55.445,55.445 0 0 0 3.916,-7.976 73.047,73.047 0 0 0 2.9,-8.953 98.002,98.002 0 0 0 1.922,-9.39 l -39.948,25.303 c 0.628,4.543 2.054,7.902 4.278,10.078 2.223,2.174 5.22,3.261 8.99,3.261 z"
         fill="#ffffff"
         fill-rule="evenodd"
         id="path9" /></g><g
       id="g15"
       transform="matrix(0.26458333,0,0,0.26458333,23.175651,64.75492)"
       style="display:none"><path
         d="m 486.081,199.412 0.554,0.499 a 33.95,33.95 0 0 1 4.51,4.943 c 0.334,0.447 0.657,0.903 0.968,1.366 a 33.924,33.924 0 0 1 3.782,7.452 34.131,34.131 0 0 1 1.997,13.167 34.378,34.378 0 0 1 -0.598,4.986 33.86,33.86 0 0 1 -1.324,4.844 33.682,33.682 0 0 1 -1.27,3.099 34.826,34.826 0 0 1 -1.57,2.959 34.329,34.329 0 0 1 -1.853,2.791 33.788,33.788 0 0 1 -2.116,2.596 L 340.49,413.232 289.206,367.056 437.878,201.938 a 34.11,34.11 0 0 1 3.626,-3.475 34.85,34.85 0 0 1 2.684,-2.003 33.876,33.876 0 0 1 4.361,-2.49 33.7,33.7 0 0 1 3.091,-1.292 33.725,33.725 0 0 1 3.202,-0.983 33.865,33.865 0 0 1 4.945,-0.875 34.034,34.034 0 0 1 8.354,0.178 34.017,34.017 0 0 1 6.496,1.605 34.552,34.552 0 0 1 3.098,1.271 33.75,33.75 0 0 1 2.96,1.57 33.894,33.894 0 0 1 5.387,3.968 z"
         fill="#fdb600"
         fill-rule="evenodd"
         id="path10" /><path
         d="m 486.081,199.412 0.554,0.499 a 33.95,33.95 0 0 1 4.51,4.943 c 0.334,0.447 0.657,0.903 0.968,1.366 a 33.924,33.924 0 0 1 3.782,7.452 34.131,34.131 0 0 1 1.997,13.167 34.378,34.378 0 0 1 -0.598,4.986 33.86,33.86 0 0 1 -1.324,4.844 33.682,33.682 0 0 1 -1.27,3.099 34.826,34.826 0 0 1 -1.57,2.959 34.329,34.329 0 0 1 -1.853,2.791 33.788,33.788 0 0 1 -2.116,2.596 L 340.49,413.232 289.206,367.056 437.878,201.938 a 34.11,34.11 0 0 1 3.626,-3.475 34.85,34.85 0 0 1 2.684,-2.003 33.876,33.876 0 0 1 4.361,-2.49 33.7,33.7 0 0 1 3.091,-1.292 33.725,33.725 0 0 1 3.202,-0.983 33.865,33.865 0 0 1 4.945,-0.875 34.034,34.034 0 0 1 8.354,0.178 34.017,34.017 0 0 1 6.496,1.605 34.552,34.552 0 0 1 3.098,1.271 33.75,33.75 0 0 1 2.96,1.57 33.894,33.894 0 0 1 5.387,3.968 z"
         fill="none"
         id="path11" /><g
         clip-path="url(#h)"
         transform="translate(289.205,190.645)"
         id="g14"><g
           fill-rule="evenodd"
           id="g13"><path
             d="m 122.952,31.22 58.882,54.908 -7.844,8.411 -58.882,-54.908 z"
             fill="#b6c5cd"
             id="path12" /><path
             d="m 175.865,-10.58 41.857,37.687 a 8.697,8.697 0 0 1 1.127,1.236 8.597,8.597 0 0 1 1.187,2.204 8.594,8.594 0 0 1 0.497,2.454 8.597,8.597 0 0 1 -0.237,2.493 8.279,8.279 0 0 1 -0.39,1.193 8.527,8.527 0 0 1 -1.553,2.47 l -39.97,44.391 -54.537,-49.105 39.97,-44.392 a 8.518,8.518 0 0 1 5.061,-2.726 8.545,8.545 0 0 1 5.277,0.898 8.507,8.507 0 0 1 1.711,1.197 z"
             fill="#c6527a"
             id="path13" /></g></g><path
         d="m 279.4,431.627 6.523,-56.912 48,43.219 z"
         fill="#fffdaf"
         fill-rule="evenodd"
         id="path14" /></g><g
       id="Layer_1-2"
       data-name="Layer 1"
       transform="matrix(0.15693773,0,0,0.15693773,100.80431,116.90492)"><polygon
         class="cls-1"
         points="202.6,217.17 312.92,197.74 0,532.86 148.48,268.15 132.37,272.03 112.4,276.84 15.96,298.35 161.67,0 368.42,0 "
         id="polygon1"
         style="fill:#cc2927" /><polygon
         class="cls-2"
         points="15.96,298.35 144.31,0 161.67,0 "
         id="polygon2"
         style="fill:#242754" /><polygon
         class="cls-2"
         points="0,532.86 132.37,272.03 148.48,268.15 "
         id="polygon3"
         style="fill:#242754" /><polygon
         class="cls-3"
         points="15.96,298.35 124.9,0 144.31,0 "
         id="polygon4"
         style="fill:#0596be" /><polygon
         class="cls-3"
         points="0,532.86 112.4,276.84 132.37,272.03 "
         id="polygon5"
         style="fill:#0596be" /></g><g
       clip-path="url(#f)"
       id="g27"
       transform="matrix(0.26458333,0,0,0.26458333,23.17565,64.75492)"><path
         d="m 150.538,60.757 h 285.557 a 25.58,25.58 0 0 1 12.068,3.023 26.281,26.281 0 0 1 2.154,1.291 25.282,25.282 0 0 1 2.017,1.496 25.19,25.19 0 0 1 2.73,2.598 26.161,26.161 0 0 1 1.592,1.942 c 0.25,0.336 0.491,0.679 0.723,1.027 0.234,0.348 0.458,0.702 0.673,1.061 a 26.68,26.68 0 0 1 1.184,2.216 26.55,26.55 0 0 1 0.961,2.32 26.248,26.248 0 0 1 0.73,2.405 25.725,25.725 0 0 1 0.767,6.22 v 274.752 a 26.288,26.288 0 0 1 -0.123,2.51 24.855,24.855 0 0 1 -0.369,2.484 25.852,25.852 0 0 1 -0.61,2.437 25.607,25.607 0 0 1 -9.247,13.131 26.001,26.001 0 0 1 -4.305,2.58 c -0.379,0.18 -0.76,0.348 -1.148,0.507 a 24.473,24.473 0 0 1 -2.366,0.847 25.184,25.184 0 0 1 -3.674,0.826 25.918,25.918 0 0 1 -2.5,0.246 c -0.419,0.02 -0.838,0.03 -1.257,0.03 h -14.534 a 26.353,26.353 0 0 0 -2.508,0.123 c -0.417,0.042 -0.832,0.094 -1.246,0.156 a 25.42,25.42 0 0 0 -2.465,0.49 25.539,25.539 0 0 0 -8.002,3.546 26.05,26.05 0 0 0 -2.017,1.497 c -0.325,0.265 -0.642,0.538 -0.95,0.821 a 24.81,24.81 0 0 0 -2.599,2.727 25.305,25.305 0 0 0 -2.169,3.08 26.06,26.06 0 0 0 -1.693,3.362 26.491,26.491 0 0 0 -0.846,2.366 c -0.122,0.402 -0.234,0.805 -0.335,1.212 a 25.993,25.993 0 0 0 -0.643,3.71 25.038,25.038 0 0 0 -0.125,2.509 v 14.534 a 25.097,25.097 0 0 1 -0.123,2.51 26.03,26.03 0 0 1 -0.368,2.483 c -0.082,0.411 -0.174,0.82 -0.275,1.226 a 25.596,25.596 0 0 1 -24.832,19.379 H 78.505 a 25.06,25.06 0 0 1 -2.51,-0.123 26.088,26.088 0 0 1 -2.484,-0.368 25.711,25.711 0 0 1 -2.437,-0.61 26.261,26.261 0 0 1 -2.365,-0.848 25.38,25.38 0 0 1 -3.364,-1.693 25.011,25.011 0 0 1 -2.09,-1.396 25.168,25.168 0 0 1 -4.539,-4.321 24.586,24.586 0 0 1 -1.495,-2.018 25.56,25.56 0 0 1 -4.284,-12.965 c -0.02,-0.419 -0.03,-0.838 -0.03,-1.256 V 159.29 A 25.6,25.6 0 0 1 78.505,133.692 H 99.34 a 25.54,25.54 0 0 0 7.431,-1.103 25.442,25.442 0 0 0 4.636,-1.92 25.493,25.493 0 0 0 5.124,-3.608 25.745,25.745 0 0 0 3.37,-3.719 25.735,25.735 0 0 0 2.58,-4.304 25.655,25.655 0 0 0 1.966,-5.95 25.644,25.644 0 0 0 0.492,-4.994 V 86.356 a 25.545,25.545 0 0 1 1.102,-7.431 25.526,25.526 0 0 1 2.54,-5.73 25.633,25.633 0 0 1 6.707,-7.4 25.545,25.545 0 0 1 6.625,-3.541 25.658,25.658 0 0 1 7.368,-1.466 c 0.418,-0.02 0.837,-0.03 1.256,-0.03 v 0 z"
         fill="#36c38e"
         fill-rule="evenodd"
         stroke="#36c38e"
         id="path1"
         style="fill:#36a7c3;fill-opacity:1" /><path
         d="m 163.048,81.467 h 251.437 a 25.58,25.58 0 0 1 13.16,3.642 24.946,24.946 0 0 1 2.09,1.395 25.99,25.99 0 0 1 1.943,1.594 25.704,25.704 0 0 1 5.948,8.022 26.55,26.55 0 0 1 0.961,2.321 26.248,26.248 0 0 1 0.73,2.404 25.67,25.67 0 0 1 0.767,6.22 v 241.728 a 26.353,26.353 0 0 1 -0.123,2.508 24.712,24.712 0 0 1 -0.369,2.485 25.852,25.852 0 0 1 -0.61,2.437 26.413,26.413 0 0 1 -0.847,2.366 26.69,26.69 0 0 1 -1.074,2.27 25.087,25.087 0 0 1 -1.292,2.155 25.014,25.014 0 0 1 -1.495,2.017 25.729,25.729 0 0 1 -1.688,1.862 c -0.296,0.296 -0.599,0.585 -0.909,0.867 a 26.575,26.575 0 0 1 -1.943,1.593 c -0.336,0.25 -0.679,0.49 -1.027,0.723 -0.348,0.234 -0.702,0.458 -1.062,0.673 a 24.477,24.477 0 0 1 -2.215,1.184 24.892,24.892 0 0 1 -2.32,0.96 26.413,26.413 0 0 1 -2.403,0.731 27.14,27.14 0 0 1 -2.465,0.49 24.712,24.712 0 0 1 -2.5,0.246 c -0.419,0.02 -0.838,0.03 -1.257,0.03 h -7.873 a 25.038,25.038 0 0 0 -2.51,0.124 27.638,27.638 0 0 0 -2.485,0.368 c -0.41,0.082 -0.819,0.174 -1.225,0.277 a 24.847,24.847 0 0 0 -2.403,0.729 26.136,26.136 0 0 0 -3.444,1.525 26.043,26.043 0 0 0 -3.182,2.016 25.337,25.337 0 0 0 -2.85,2.459 25.627,25.627 0 0 0 -3.186,3.879 25.984,25.984 0 0 0 -2.366,4.426 25.982,25.982 0 0 0 -0.846,2.365 c -0.12,0.402 -0.232,0.806 -0.335,1.212 a 27.057,27.057 0 0 0 -0.489,2.463 25.106,25.106 0 0 0 -0.246,2.5 c -0.02,0.419 -0.03,0.837 -0.03,1.256 v 7.875 a 25.097,25.097 0 0 1 -0.125,2.508 25.992,25.992 0 0 1 -0.644,3.71 25.9,25.9 0 0 1 -0.334,1.213 26.387,26.387 0 0 1 -1.355,3.514 26.731,26.731 0 0 1 -1.857,3.276 28.34,28.34 0 0 1 -0.724,1.028 24.843,24.843 0 0 1 -1.594,1.94 c -0.28,0.31 -0.569,0.615 -0.865,0.912 a 26.613,26.613 0 0 1 -2.852,2.459 c -0.337,0.249 -0.679,0.49 -1.028,0.724 a 25.582,25.582 0 0 1 -5.597,2.817 25.596,25.596 0 0 1 -8.624,1.497 H 98.314 a 25.06,25.06 0 0 1 -2.51,-0.125 26.088,26.088 0 0 1 -2.484,-0.368 24.554,24.554 0 0 1 -2.437,-0.61 25.061,25.061 0 0 1 -2.365,-0.846 25.38,25.38 0 0 1 -3.365,-1.693 c -0.359,-0.216 -0.713,-0.44 -1.061,-0.672 a 24.843,24.843 0 0 1 -2.97,-2.318 c -0.31,-0.281 -0.613,-0.57 -0.91,-0.865 a 25.802,25.802 0 0 1 -1.686,-1.862 26.227,26.227 0 0 1 -2.169,-3.079 25.686,25.686 0 0 1 -3.15,-8.167 25.117,25.117 0 0 1 -0.368,-2.485 25.698,25.698 0 0 1 -0.124,-2.508 V 172.609 a 25.597,25.597 0 0 1 25.599,-25.598 h 13.538 a 25.545,25.545 0 0 0 7.43,-1.103 25.677,25.677 0 0 0 5.73,-2.54 25.6,25.6 0 0 0 10.942,-13.332 25.494,25.494 0 0 0 1.373,-6.115 25.585,25.585 0 0 0 0.123,-2.509 v -14.347 a 25.67,25.67 0 0 1 0.767,-6.22 25.61,25.61 0 0 1 12.764,-16.356 25.617,25.617 0 0 1 12.067,-3.022 z"
         fill="#035841"
         fill-rule="evenodd"
         id="path2"
         style="fill:#034758;fill-opacity:1" /><path
         d="M 187.538,117.166 H 376.67 a 25.603,25.603 0 0 1 21.284,11.377 25.011,25.011 0 0 1 1.292,2.154 c 0.197,0.37 0.385,0.744 0.565,1.123 a 26.483,26.483 0 0 1 0.96,2.32 25.074,25.074 0 0 1 0.73,2.404 24.572,24.572 0 0 1 0.491,2.464 26.088,26.088 0 0 1 0.276,3.756 V 326.33 c 0,0.383 -0.009,0.767 -0.029,1.15 a 23.17,23.17 0 0 1 -1.34,6.75 23.583,23.583 0 0 1 -3.954,6.977 c -0.243,0.297 -0.494,0.588 -0.753,0.872 a 22.296,22.296 0 0 1 -1.626,1.628 23.127,23.127 0 0 1 -1.78,1.459 c -0.308,0.229 -0.622,0.45 -0.94,0.664 a 24.093,24.093 0 0 1 -1.975,1.183 23.539,23.539 0 0 1 -3.154,1.398 23.332,23.332 0 0 1 -6.752,1.343 25.92,25.92 0 0 1 -1.15,0.029 h -0.003 c -0.384,0 -0.767,0.009 -1.15,0.027 a 24.513,24.513 0 0 0 -2.29,0.226 c -0.38,0.056 -0.759,0.122 -1.136,0.198 a 22.729,22.729 0 0 0 -3.324,0.919 c -0.362,0.129 -0.72,0.267 -1.076,0.415 a 24.517,24.517 0 0 0 -2.08,0.983 23.63,23.63 0 0 0 -6.322,4.934 23.918,23.918 0 0 0 -2.739,3.693 23.03,23.03 0 0 0 -1.083,2.03 22.474,22.474 0 0 0 -0.88,2.126 23.255,23.255 0 0 0 -1.344,6.75 c -0.02,0.383 -0.029,0.767 -0.029,1.15 v 0.004 a 23.307,23.307 0 0 1 -0.703,5.698 22.576,22.576 0 0 1 -0.668,2.204 24.739,24.739 0 0 1 -0.88,2.126 22.412,22.412 0 0 1 -1.086,2.029 23.054,23.054 0 0 1 -1.278,1.913 23.995,23.995 0 0 1 -1.459,1.781 c -0.259,0.284 -0.524,0.562 -0.796,0.832 -0.27,0.272 -0.548,0.537 -0.832,0.794 a 24.031,24.031 0 0 1 -1.78,1.461 c -0.308,0.229 -0.62,0.449 -0.94,0.662 -0.319,0.214 -0.644,0.419 -0.974,0.616 a 22.412,22.412 0 0 1 -2.029,1.086 24.739,24.739 0 0 1 -2.126,0.88 23.658,23.658 0 0 1 -6.75,1.343 c -0.384,0.019 -0.768,0.028 -1.152,0.028 H 136.132 a 26.311,26.311 0 0 1 -2.51,-0.123 24.87,24.87 0 0 1 -2.485,-0.369 25.725,25.725 0 0 1 -3.63,-1.005 25.761,25.761 0 0 1 -4.536,-2.145 c -0.359,-0.215 -0.713,-0.439 -1.061,-0.673 a 26.823,26.823 0 0 1 -2.018,-1.495 26.16,26.16 0 0 1 -1.861,-1.688 24.89,24.89 0 0 1 -1.687,-1.862 25.282,25.282 0 0 1 -2.788,-4.171 25.212,25.212 0 0 1 -1.074,-2.271 25.351,25.351 0 0 1 -0.847,-2.366 25.392,25.392 0 0 1 -0.979,-4.922 25.507,25.507 0 0 1 -0.123,-2.509 V 194.814 a 25.58,25.58 0 0 1 3.642,-13.16 25.668,25.668 0 0 1 3.856,-4.941 25.55,25.55 0 0 1 6.034,-4.475 25.584,25.584 0 0 1 12.067,-3.023 h 0.21 a 25.67,25.67 0 0 0 6.22,-0.767 25.437,25.437 0 0 0 4.724,-1.69 25.695,25.695 0 0 0 5.295,-3.353 25.682,25.682 0 0 0 4.322,-4.539 25.289,25.289 0 0 0 2.014,-3.182 25.472,25.472 0 0 0 1.92,-4.636 25.692,25.692 0 0 0 1.072,-6.175 c 0.02,-0.418 0.031,-0.837 0.031,-1.256 v -0.853 a 25.545,25.545 0 0 1 1.497,-8.623 25.3,25.3 0 0 1 1.526,-3.444 25.558,25.558 0 0 1 6.336,-7.72 25.637,25.637 0 0 1 8.809,-4.709 25.633,25.633 0 0 1 7.43,-1.102 z"
         fill="#023e2e"
         fill-rule="evenodd"
         id="path3"
         style="fill:#02323e;fill-opacity:1" /><path
         d="M 187.538,117.166 H 376.67 a 25.603,25.603 0 0 1 21.284,11.377 25.011,25.011 0 0 1 1.292,2.154 c 0.197,0.37 0.385,0.744 0.565,1.123 a 26.483,26.483 0 0 1 0.96,2.32 25.074,25.074 0 0 1 0.73,2.404 24.572,24.572 0 0 1 0.491,2.464 26.088,26.088 0 0 1 0.276,3.756 V 326.33 c 0,0.383 -0.009,0.767 -0.029,1.15 a 23.17,23.17 0 0 1 -1.34,6.75 23.583,23.583 0 0 1 -3.954,6.977 c -0.243,0.297 -0.494,0.588 -0.753,0.872 a 22.296,22.296 0 0 1 -1.626,1.628 23.127,23.127 0 0 1 -1.78,1.459 c -0.308,0.229 -0.622,0.45 -0.94,0.664 a 24.093,24.093 0 0 1 -1.975,1.183 23.539,23.539 0 0 1 -3.154,1.398 23.332,23.332 0 0 1 -6.752,1.343 25.92,25.92 0 0 1 -1.15,0.029 h -0.003 c -0.384,0 -0.767,0.009 -1.15,0.027 a 24.513,24.513 0 0 0 -2.29,0.226 c -0.38,0.056 -0.759,0.122 -1.136,0.198 a 22.729,22.729 0 0 0 -3.324,0.919 c -0.362,0.129 -0.72,0.267 -1.076,0.415 a 24.517,24.517 0 0 0 -2.08,0.983 23.63,23.63 0 0 0 -6.322,4.934 23.918,23.918 0 0 0 -2.739,3.693 23.03,23.03 0 0 0 -1.083,2.03 22.474,22.474 0 0 0 -0.88,2.126 23.255,23.255 0 0 0 -1.344,6.75 c -0.02,0.383 -0.029,0.767 -0.029,1.15 v 0.004 a 23.307,23.307 0 0 1 -0.703,5.698 22.576,22.576 0 0 1 -0.668,2.204 24.739,24.739 0 0 1 -0.88,2.126 22.412,22.412 0 0 1 -1.086,2.029 23.054,23.054 0 0 1 -1.278,1.913 23.995,23.995 0 0 1 -1.459,1.781 c -0.259,0.284 -0.524,0.562 -0.796,0.832 -0.27,0.272 -0.548,0.537 -0.832,0.794 a 24.031,24.031 0 0 1 -1.78,1.461 c -0.308,0.229 -0.62,0.449 -0.94,0.662 -0.319,0.214 -0.644,0.419 -0.974,0.616 a 22.412,22.412 0 0 1 -2.029,1.086 24.739,24.739 0 0 1 -2.126,0.88 23.658,23.658 0 0 1 -6.75,1.343 c -0.384,0.019 -0.768,0.028 -1.152,0.028 H 136.132 a 26.311,26.311 0 0 1 -2.51,-0.123 24.87,24.87 0 0 1 -2.485,-0.369 25.725,25.725 0 0 1 -3.63,-1.005 25.761,25.761 0 0 1 -4.536,-2.145 c -0.359,-0.215 -0.713,-0.439 -1.061,-0.673 a 26.823,26.823 0 0 1 -2.018,-1.495 26.16,26.16 0 0 1 -1.861,-1.688 24.89,24.89 0 0 1 -1.687,-1.862 25.282,25.282 0 0 1 -2.788,-4.171 25.212,25.212 0 0 1 -1.074,-2.271 25.351,25.351 0 0 1 -0.847,-2.366 25.392,25.392 0 0 1 -0.979,-4.922 25.507,25.507 0 0 1 -0.123,-2.509 V 194.814 a 25.58,25.58 0 0 1 3.642,-13.16 25.668,25.668 0 0 1 3.856,-4.941 25.55,25.55 0 0 1 6.034,-4.475 25.584,25.584 0 0 1 12.067,-3.023 h 0.21 a 25.67,25.67 0 0 0 6.22,-0.767 25.437,25.437 0 0 0 4.724,-1.69 25.695,25.695 0 0 0 5.295,-3.353 25.682,25.682 0 0 0 4.322,-4.539 25.289,25.289 0 0 0 2.014,-3.182 25.472,25.472 0 0 0 1.92,-4.636 25.692,25.692 0 0 0 1.072,-6.175 c 0.02,-0.418 0.031,-0.837 0.031,-1.256 v -0.853 a 25.545,25.545 0 0 1 1.497,-8.623 25.3,25.3 0 0 1 1.526,-3.444 25.558,25.558 0 0 1 6.336,-7.72 25.637,25.637 0 0 1 8.809,-4.709 25.633,25.633 0 0 1 7.43,-1.102 z"
         fill="none"
         id="path15" /><g
         clip-path="url(#g)"
         transform="translate(110.533,117.166)"
         id="g16"><path
           d="m 206.332,124.276 c 3.529,1.329 7.444,1.993 11.746,1.993 6.235,0 11.756,-1.063 16.565,-3.19 4.809,-2.126 9.002,-4.942 12.579,-8.446 3.576,-3.504 6.573,-7.516 8.989,-12.035 a 79.747,79.747 0 0 0 5.873,-14.029 c 1.499,-4.833 2.574,-9.618 3.227,-14.355 0.652,-4.736 0.978,-9.062 0.978,-12.977 0,-5.607 -0.7,-10.476 -2.102,-14.609 -1.402,-4.132 -3.36,-7.564 -5.873,-10.295 -2.513,-2.73 -5.546,-4.76 -9.098,-6.09 -3.552,-1.329 -7.455,-1.994 -11.71,-1.994 -6.235,0 -11.756,1.064 -16.565,3.19 -4.81,2.127 -9.002,4.942 -12.58,8.447 -3.575,3.504 -6.584,7.515 -9.026,12.035 a 78.6,78.6 0 0 0 -5.908,13.992 c -1.498,4.81 -2.574,9.594 -3.226,14.355 -0.653,4.761 -0.98,9.099 -0.98,13.014 0,5.607 0.702,10.476 2.104,14.609 1.4,4.132 3.37,7.564 5.907,10.295 2.539,2.73 5.572,4.76 9.1,6.09 z m -181.25,0.326 3.117,-15.733 h 24.215 l 12.18,-60.9 -23.49,11.6 L 37.407,45.142 70.684,29.264 H 86.417 L 70.539,108.87 h 20.808 l -3.118,15.733 H 25.082 Z m 81.635,0 3.117,-15.733 h 24.215 l 12.18,-60.9 -23.49,11.6 -3.697,-14.427 33.278,-15.878 h 15.732 l -15.878,79.605 h 20.808 l -3.118,15.733 z m 117.92,-78.518 c 3.022,-2.271 6.418,-3.407 10.189,-3.407 3.769,0 6.765,1.1 8.989,3.299 2.223,2.199 3.625,5.546 4.205,10.041 l -39.875,25.23 A 82.794,82.794 0 0 1 211.262,67.4 c 1.45,-4.592 3.287,-8.725 5.51,-12.398 2.224,-3.673 4.846,-6.646 7.866,-8.918 z m 3.155,64.199 c -2.175,1.04 -4.52,1.559 -7.033,1.559 -3.77,0 -6.766,-1.088 -8.99,-3.263 -2.222,-2.175 -3.648,-5.534 -4.278,-10.077 l 39.948,-25.303 a 98.023,98.023 0 0 1 -1.921,9.39 73.254,73.254 0 0 1 -2.9,8.953 55.394,55.394 0 0 1 -3.915,7.975 c -1.473,2.465 -3.116,4.616 -4.93,6.452 -1.811,1.837 -3.805,3.275 -5.981,4.314 z m -91.35,137.16 c -4.302,0 -8.217,-0.665 -11.745,-1.994 -3.529,-1.329 -6.562,-3.359 -9.099,-6.09 -2.538,-2.731 -4.507,-6.163 -5.909,-10.295 -1.402,-4.133 -2.102,-9.003 -2.102,-14.61 0,-3.913 0.326,-8.251 0.978,-13.013 0.653,-4.76 1.728,-9.545 3.227,-14.355 a 78.57,78.57 0 0 1 5.908,-13.992 c 2.441,-4.52 5.45,-8.53 9.027,-12.035 3.577,-3.504 7.769,-6.32 12.579,-8.446 4.809,-2.127 10.33,-3.19 16.566,-3.19 4.253,0 8.156,0.664 11.709,1.994 3.552,1.329 6.585,3.359 9.098,6.09 2.514,2.73 4.47,6.162 5.873,10.294 1.402,4.133 2.102,9.003 2.102,14.61 0,3.914 -0.326,8.24 -0.978,12.977 -0.653,4.736 -1.728,9.521 -3.227,14.354 a 79.741,79.741 0 0 1 -5.872,14.03 c -2.417,4.518 -5.413,8.53 -8.99,12.035 -3.577,3.504 -7.77,6.32 -12.58,8.446 -4.808,2.126 -10.33,3.19 -16.565,3.19 z m -111.36,-1.668 3.117,-15.732 h 24.215 l 12.18,-60.9 -23.49,11.6 -3.697,-14.428 33.277,-15.877 h 15.733 l -15.878,79.605 h 20.808 l -3.118,15.732 z m 166.388,-15.732 -3.118,15.732 H 251.5 l 3.118,-15.732 H 233.81 l 15.877,-79.605 h -15.732 l -33.278,15.877 3.698,14.428 23.489,-11.6 -12.18,60.9 z M 153.189,163.85 c -3.77,0 -7.165,1.136 -10.186,3.408 -3.021,2.271 -5.643,5.244 -7.866,8.917 -2.223,3.674 -4.06,7.806 -5.51,12.398 a 82.918,82.918 0 0 0 -3.118,13.848 l 39.876,-25.23 c -0.58,-4.496 -1.982,-7.843 -4.205,-10.042 -2.224,-2.2 -5.22,-3.299 -8.991,-3.299 z m -14.064,69.164 c 2.513,0 4.857,-0.52 7.032,-1.558 2.175,-1.039 4.169,-2.476 5.98,-4.313 1.814,-1.837 3.457,-3.988 4.93,-6.452 a 55.445,55.445 0 0 0 3.916,-7.976 73.047,73.047 0 0 0 2.9,-8.953 98.002,98.002 0 0 0 1.922,-9.39 l -39.948,25.303 c 0.628,4.543 2.054,7.902 4.278,10.078 2.223,2.174 5.22,3.261 8.99,3.261 z"
           fill="#ffffff"
           fill-rule="evenodd"
           id="path16" /></g><g
         id="g22"
         transform="translate(4.96063e-6)"
         style="display:none"><path
           d="m 486.081,199.412 0.554,0.499 a 33.95,33.95 0 0 1 4.51,4.943 c 0.334,0.447 0.657,0.903 0.968,1.366 a 33.924,33.924 0 0 1 3.782,7.452 34.131,34.131 0 0 1 1.997,13.167 34.378,34.378 0 0 1 -0.598,4.986 33.86,33.86 0 0 1 -1.324,4.844 33.682,33.682 0 0 1 -1.27,3.099 34.826,34.826 0 0 1 -1.57,2.959 34.329,34.329 0 0 1 -1.853,2.791 33.788,33.788 0 0 1 -2.116,2.596 L 340.49,413.232 289.206,367.056 437.878,201.938 a 34.11,34.11 0 0 1 3.626,-3.475 34.85,34.85 0 0 1 2.684,-2.003 33.876,33.876 0 0 1 4.361,-2.49 33.7,33.7 0 0 1 3.091,-1.292 33.725,33.725 0 0 1 3.202,-0.983 33.865,33.865 0 0 1 4.945,-0.875 34.034,34.034 0 0 1 8.354,0.178 34.017,34.017 0 0 1 6.496,1.605 34.552,34.552 0 0 1 3.098,1.271 33.75,33.75 0 0 1 2.96,1.57 33.894,33.894 0 0 1 5.387,3.968 z"
           fill="#fdb600"
           fill-rule="evenodd"
           id="path17" /><path
           d="m 486.081,199.412 0.554,0.499 a 33.95,33.95 0 0 1 4.51,4.943 c 0.334,0.447 0.657,0.903 0.968,1.366 a 33.924,33.924 0 0 1 3.782,7.452 34.131,34.131 0 0 1 1.997,13.167 34.378,34.378 0 0 1 -0.598,4.986 33.86,33.86 0 0 1 -1.324,4.844 33.682,33.682 0 0 1 -1.27,3.099 34.826,34.826 0 0 1 -1.57,2.959 34.329,34.329 0 0 1 -1.853,2.791 33.788,33.788 0 0 1 -2.116,2.596 L 340.49,413.232 289.206,367.056 437.878,201.938 a 34.11,34.11 0 0 1 3.626,-3.475 34.85,34.85 0 0 1 2.684,-2.003 33.876,33.876 0 0 1 4.361,-2.49 33.7,33.7 0 0 1 3.091,-1.292 33.725,33.725 0 0 1 3.202,-0.983 33.865,33.865 0 0 1 4.945,-0.875 34.034,34.034 0 0 1 8.354,0.178 34.017,34.017 0 0 1 6.496,1.605 34.552,34.552 0 0 1 3.098,1.271 33.75,33.75 0 0 1 2.96,1.57 33.894,33.894 0 0 1 5.387,3.968 z"
           fill="none"
           id="path18" /><g
           clip-path="url(#h)"
           transform="translate(289.205,190.645)"
           id="g21"><g
             fill-rule="evenodd"
             id="g20"><path
               d="m 122.952,31.22 58.882,54.908 -7.844,8.411 -58.882,-54.908 z"
               fill="#b6c5cd"
               id="path19" /><path
               d="m 175.865,-10.58 41.857,37.687 a 8.697,8.697 0 0 1 1.127,1.236 8.597,8.597 0 0 1 1.187,2.204 8.594,8.594 0 0 1 0.497,2.454 8.597,8.597 0 0 1 -0.237,2.493 8.279,8.279 0 0 1 -0.39,1.193 8.527,8.527 0 0 1 -1.553,2.47 l -39.97,44.391 -54.537,-49.105 39.97,-44.392 a 8.518,8.518 0 0 1 5.061,-2.726 8.545,8.545 0 0 1 5.277,0.898 8.507,8.507 0 0 1 1.711,1.197 z"
               fill="#c6527a"
               id="path20" /></g></g><path
           d="m 279.4,431.627 6.523,-56.912 48,43.219 z"
           fill="#fffdaf"
           fill-rule="evenodd"
           id="path21" /></g><g
         id="g26"
         data-name="Layer 1"
         transform="matrix(0.59315048,0,0,0.59315048,293.39968,197.10238)"><polygon
           class="cls-1"
           points="202.6,217.17 312.92,197.74 0,532.86 148.48,268.15 132.37,272.03 112.4,276.84 15.96,298.35 161.67,0 368.42,0 "
           id="polygon22"
           style="fill:#cc2927" /><polygon
           class="cls-2"
           points="15.96,298.35 144.31,0 161.67,0 "
           id="polygon23"
           style="fill:#242754" /><polygon
           class="cls-2"
           points="0,532.86 132.37,272.03 148.48,268.15 "
           id="polygon24"
           style="fill:#242754" /><polygon
           class="cls-3"
           points="15.96,298.35 124.9,0 144.31,0 "
           id="polygon25"
           style="fill:#0596be" /><polygon
           class="cls-3"
           points="0,532.86 112.4,276.84 132.37,272.03 "
           id="polygon26"
           style="fill:#0596be" /></g></g></g></svg>
